<?xml version="1.0" encoding="utf-8"?>
<!-- Generator: Adobe Illustrator 27.7.0, SVG Export Plug-In . SVG Version: 6.00 Build 0)  -->
<svg version="1.1" id="Layer_1" xmlns="http://www.w3.org/2000/svg" xmlns:xlink="http://www.w3.org/1999/xlink" x="0px" y="0px"
	 viewBox="0 0 512 512" style="enable-background:new 0 0 512 512;" xml:space="preserve">
<style type="text/css">
	.st0{fill:#FFFEFF;}
	.st1{fill:#2863EE;}
	.st2{fill:#60AB4B;}
	.st3{fill:#E3614A;}
</style>
<g>
	<path class="st0" d="M512-1.98V29.1c-34.64-1-69.28-2-103.93-3c-2.71,0.01-5.42,0.02-8.13,0.03c-2.62-0.02-5.24-0.05-7.86-0.07
		c-2.72,0.01-5.43,0.03-8.15,0.04c-2.62-0.01-5.23-0.03-7.85-0.05c-2.72,0.02-5.43,0.03-8.15,0.04c-2.62-0.01-5.23-0.03-7.85-0.04
		c-2.72,0.01-5.43,0.02-8.15,0.04c-2.62-0.02-5.23-0.03-7.85-0.04c-2.72,0.01-5.43,0.02-8.15,0.04c-2.62-0.02-5.23-0.03-7.85-0.04
		c-2.72,0.01-5.43,0.02-8.15,0.04c-2.62-0.02-5.23-0.03-7.85-0.04c-2.72,0.01-5.43,0.02-8.15,0.04c-2.62-0.02-5.23-0.03-7.85-0.04
		c-2.72,0.01-5.43,0.02-8.15,0.04c-2.62-0.02-5.23-0.03-7.85-0.04c-2.72,0.01-5.43,0.02-8.15,0.04c-2.62-0.02-5.23-0.03-7.85-0.04
		c-2.72,0.01-5.43,0.02-8.15,0.04c-2.62-0.02-5.23-0.03-7.85-0.04c-2.72,0.01-5.43,0.02-8.15,0.04c-2.62-0.02-5.23-0.03-7.85-0.04
		c-2.72,0.01-5.43,0.02-8.15,0.04c-2.62-0.02-5.23-0.03-7.85-0.04c-2.72,0.01-5.43,0.02-8.15,0.04c-2.62-0.02-5.23-0.03-7.85-0.04
		c-2.72,0.01-5.43,0.02-8.15,0.04c-2.62-0.02-5.23-0.03-7.85-0.04c-2.72,0.01-5.43,0.02-8.15,0.04c-2.62-0.01-5.24-0.02-7.85-0.03
		c-2.72,0.01-5.43,0.03-8.15,0.04c-2.62-0.02-5.24-0.03-7.85-0.04c-2.72,0.01-5.43,0.03-8.15,0.05c-2.62-0.02-5.23-0.03-7.85-0.05
		c-2.72,0.02-5.43,0.03-8.15,0.05c-2.62-0.02-5.23-0.03-7.85-0.05c-2.71,0.02-5.43,0.04-8.15,0.06c-2.62-0.02-5.23-0.04-7.85-0.05
		c-2.72,0.01-5.43,0.03-8.15,0.05c-2.62-0.01-5.23-0.03-7.85-0.05c-2.72,0.02-5.44,0.04-8.15,0.07c-2.61-0.01-5.22-0.01-7.83-0.02
		c-1.4,0.04-2.8,0.07-4.21,0.1l-11.82,0.03c-2.83,0.88-5.66,1.76-8.49,2.63C31.72,27.66,15.86,26.43,0,25.2V-1.99
		C170.67-2.01,341.33-2.01,512-1.98z"/>
	<path class="st1" d="M164.9,313.36c-9.4,10.47-18.8,20.94-28.2,31.41c-9.54,12.98-19.08,25.95-28.62,38.93
		c-15.91,28.53-31.81,57.06-47.71,85.6c-1.83,14.24-5.26,27.1-21.98,32.15c-2.97,0.9-4.3,6.9-6.39,10.55H0V134.24
		C66.1,184.24,118.68,246.03,164.9,313.36z"/>
	<path class="st1" d="M49,485C219.91,259.46,153.61,321.07-0.01,134.23C0,134.24,0,512,0,512l50.36-17.22
		C49.83,512.74,50.58,513.12,32,512"/>
	<path class="st2" d="M240,512H96c-0.06-4.94-0.13-9.88-0.19-14.83c0.46-7.55-1.64-16.52,1.8-22.42
		c21.22-36.38,43.06-72.45,66.03-107.79c9.53-14.66,21.5-16.11,29.04-6.87c15.08,40.31,30.27,80.57,45.1,120.96
		c1.69,4.62,1.36,9.94,1.97,14.93C239.83,501.32,239.92,506.66,240,512z"/>
	<path class="st0" d="M512,496.42V512h-56c-6.49-11.72-12.97-23.44-19.46-35.16c-17.45-20.88-34.89-41.76-52.34-62.64
		c-6.81-10.06-13.62-20.12-20.43-30.18c-37.91-42.5-84.8-62.79-143.12-54.8c1.52,7.36,2.16,15.02,4.7,22.03
		c15.33,42.41,31.81,84.43,46.3,127.11c4.47,13.14,9.39,23.06,24.26,25.51c0.03,2.71,0.06,5.42,0.09,8.13h-56
		c-0.08-5.34-0.17-10.68-0.25-16.02c-0.61-4.99-0.28-10.31-1.97-14.93c-14.83-40.39-30.02-80.65-45.1-120.96
		c-7.54-9.24-19.51-7.79-29.04,6.87c-22.97,35.34-44.81,71.41-66.03,107.79c-3.44,5.9-1.34,14.87-1.8,22.42
		c0.06,4.95,0.13,9.89,0.19,14.83H32c2.09-3.65,3.42-9.65,6.39-10.55c16.72-5.05,20.15-17.91,21.98-32.15
		c15.9-28.54,31.8-57.07,47.71-85.6c9.54-12.98,19.08-25.95,28.62-38.93c9.4-10.47,18.8-20.94,28.2-31.41
		C118.68,246.03,66.1,184.24,0,134.24V83.62C35.21,117,70.41,150.4,105.63,183.77c4.7,4.45,9.46,8.83,14.19,13.23
		c17.24,21.98,34.49,43.95,51.73,65.93c11.88,17.36,18.19,41.9,48.43,35.55c14.67-1.79,29.34-3.58,44.01-5.37
		c51.3,8.18,92.5,33.16,125.62,71.57c7.7,7.63,15.39,15.27,23.08,22.9c23.31,29.91,46.34,60.04,70.14,89.57
		c5.93,7.36,14.38,12.79,21.67,19.11C507,496.31,509.5,496.37,512,496.42z"/>
	<path class="st3" d="M512,29.1v467.32c-2.5-0.05-5-0.11-7.5-0.16c-7.29-6.32-15.74-11.75-21.67-19.11
		c-23.8-29.53-46.83-59.66-70.14-89.57c-7.69-7.63-15.38-15.27-23.08-22.9c-33.12-38.41-74.32-63.39-125.62-71.57
		c-14.67,1.79-29.34,3.58-44.01,5.37c-30.24,6.35-36.55-18.19-48.43-35.55c-17.24-21.98-34.49-43.95-51.73-65.93
		c-4.73-4.4-9.49-8.78-14.19-13.23C70.41,150.4,35.21,117,0,83.62V25.2c15.86,1.23,31.72,2.46,47.58,3.68
		c2.83-0.87,5.66-1.75,8.49-2.63l11.82-0.03c1.41-0.03,2.81-0.06,4.21-0.1c2.61,0.01,5.22,0.01,7.83,0.02
		c2.71-0.03,5.43-0.05,8.15-0.07c2.62,0.02,5.23,0.04,7.85,0.05c2.72-0.02,5.43-0.04,8.15-0.05c2.62,0.01,5.23,0.03,7.85,0.05
		c2.72-0.02,5.44-0.04,8.15-0.06c2.62,0.02,5.23,0.03,7.85,0.05c2.72-0.02,5.43-0.03,8.15-0.05c2.62,0.02,5.23,0.03,7.85,0.05
		c2.72-0.02,5.43-0.04,8.15-0.05c2.61,0.01,5.23,0.02,7.85,0.04c2.72-0.01,5.43-0.03,8.15-0.04c2.61,0.01,5.23,0.02,7.85,0.03
		c2.72-0.02,5.43-0.03,8.15-0.04c2.62,0.01,5.23,0.02,7.85,0.04c2.72-0.02,5.43-0.03,8.15-0.04c2.62,0.01,5.23,0.02,7.85,0.04
		c2.72-0.02,5.43-0.03,8.15-0.04c2.62,0.01,5.23,0.02,7.85,0.04c2.72-0.02,5.43-0.03,8.15-0.04c2.62,0.01,5.23,0.02,7.85,0.04
		c2.72-0.02,5.43-0.03,8.15-0.04c2.62,0.01,5.23,0.02,7.85,0.04c2.72-0.02,5.43-0.03,8.15-0.04c2.62,0.01,5.23,0.02,7.85,0.04
		c2.72-0.02,5.43-0.03,8.15-0.04c2.62,0.01,5.23,0.02,7.85,0.04c2.72-0.02,5.43-0.03,8.15-0.04c2.62,0.01,5.23,0.02,7.85,0.04
		c2.72-0.02,5.43-0.03,8.15-0.04c2.62,0.01,5.23,0.02,7.85,0.04c2.72-0.02,5.43-0.03,8.15-0.04c2.62,0.01,5.23,0.02,7.85,0.04
		c2.72-0.02,5.43-0.03,8.15-0.04c2.62,0.01,5.23,0.02,7.85,0.04c2.72-0.02,5.43-0.03,8.15-0.04c2.62,0.01,5.23,0.03,7.85,0.04
		c2.72-0.01,5.43-0.02,8.15-0.04c2.62,0.02,5.23,0.04,7.85,0.05c2.72-0.01,5.43-0.03,8.15-0.04c2.62,0.02,5.24,0.05,7.86,0.07
		c2.71-0.01,5.42-0.02,8.13-0.03C442.72,27.1,477.36,28.1,512,29.1z"/>
	<path class="st2" d="M456,512H296c-0.03-2.71-0.06-5.42-0.09-8.13c-14.87-2.45-19.79-12.37-24.26-25.51
		c-14.49-42.68-30.97-84.7-46.3-127.11c-2.54-7.01-3.18-14.67-4.7-22.03c58.32-7.99,105.21,12.3,143.12,54.8
		c6.81,10.06,13.62,20.12,20.43,30.18c17.45,20.88,34.89,41.76,52.34,62.64C443.03,488.56,449.51,500.28,456,512z"/>
</g>
</svg>
